RobotoSlab_Bold_Space.ufo
<glyph name="parenright" format="1">
  <advance width="1231"/>
  <unicode hex="0029"/>
  <outline>
    <contour>
      <point x="659" y="592" type="line" smooth="yes"/>
      <point x="659" y="1118"/>
      <point x="390" y="1506"/>
      <point x="140" y="1606" type="curve"/>
      <point x="78" y="1440" type="line"/>
      <point x="226" y="1330"/>
      <point x="377" y="1073"/>
      <point x="377" y="594" type="curve" smooth="yes"/>
      <point x="377" y="562" type="line" smooth="yes"/>
      <point x="377" y="83"/>
      <point x="226" y="-174"/>
      <point x="78" y="-284" type="curve"/>
      <point x="140" y="-450" type="line"/>
      <point x="390" y="-350"/>
      <point x="659" y="38"/>
      <point x="659" y="564" type="curve" smooth="yes"/>
    </contour>
  </outline>
</glyph>
<glyph name="plus" format="1">
  <advance width="1583"/>
  <unicode hex="002B"/>
  <outline>
    <contour>
      <point x="1040" y="826" type="line"/>
      <point x="42" y="826" type="line"/>
      <point x="42" y="537" type="line"/>
      <point x="1040" y="537" type="line"/>
    </contour>
    <contour>
      <point x="693" y="1206" type="line"/>
      <point x="391" y="1206" type="line"/>
      <point x="391" y="146" type="line"/>
      <point x="693" y="146" type="line"/>
    </contour>
  </outline>
</glyph>
<glyph name="six" format="1">
  <advance width="1644"/>
  <unicode hex="0036"/>
  <outline>
    <contour>
      <point x="679" y="1477" type="curve" smooth="yes"/>
      <point x="340" y="1477"/>
      <point x="81" y="1253"/>
      <point x="81" y="859" type="curve" smooth="yes"/>
      <point x="81" y="566" type="line" smooth="yes"/>
      <point x="81" y="197"/>
      <point x="302" y="-21"/>
      <point x="610" y="-21" type="curve" smooth="yes"/>
      <point x="908" y="-21"/>
      <point x="1113" y="197"/>
      <point x="1113" y="482" type="curve" smooth="yes"/>
      <point x="1113" y="764"/>
      <point x="969" y="982"/>
      <point x="700" y="982" type="curve" smooth="yes"/>
      <point x="431" y="982"/>
      <point x="280" y="798"/>
      <point x="280" y="536" type="curve"/>
      <point x="364" y="534" type="line"/>
      <point x="364" y="648"/>
      <point x="445" y="724"/>
      <point x="612" y="724" type="curve" smooth="yes"/>
      <point x="719" y="724"/>
      <point x="791" y="632"/>
      <point x="791" y="482" type="curve" smooth="yes"/>
      <point x="791" y="356"/>
      <point x="722" y="239"/>
      <point x="610" y="239" type="curve" smooth="yes"/>
      <point x="484" y="239"/>
      <point x="403" y="353"/>
      <point x="403" y="566" type="curve" smooth="yes"/>
      <point x="403" y="861" type="line" smooth="yes"/>
      <point x="403" y="1103"/>
      <point x="521" y="1212"/>
      <point x="681" y="1212" type="curve" smooth="yes"/>
      <point x="781" y="1212"/>
      <point x="845" y="1195"/>
      <point x="922" y="1170" type="curve"/>
      <point x="977" y="1416" type="line"/>
      <point x="881" y="1456"/>
      <point x="798" y="1477"/>
    </contour>
  </outline>
</glyph>
<glyph name="colon" format="1">
  <advance width="967"/>
  <unicode hex="003A"/>
  <outline>
    <contour>
      <point x="394" y="284" type="line"/>
      <point x="72" y="284" type="line"/>
      <point x="72" y="0" type="line"/>
      <point x="394" y="0" type="line"/>
    </contour>
    <contour>
      <point x="394" y="1082" type="line"/>
      <point x="72" y="1082" type="line"/>
      <point x="72" y="798" type="line"/>
      <point x="394" y="798" type="line"/>
    </contour>
  </outline>
</glyph>
<glyph name="less" format="1">
  <advance width="1511"/>
  <unicode hex="003C"/>
  <outline>
    <contour>
      <point x="311" y="563" type="line"/>
      <point x="52" y="578" type="line"/>
      <point x="52" y="410" type="line"/>
      <point x="929" y="50" type="line"/>
      <point x="929" y="357" type="line"/>
    </contour>
    <contour>
      <point x="929" y="730" type="line"/>
      <point x="929" y="1036" type="line"/>
      <point x="52" y="676" type="line"/>
      <point x="52" y="508" type="line"/>
      <point x="311" y="520" type="line"/>
    </contour>
  </outline>
</glyph>
<glyph name="C" format="1">
  <advance width="1830"/>
  <unicode hex="0043"/>
  <outline>
    <contour>
      <point x="1266" y="1245" type="line"/>
      <point x="1140" y="1396"/>
      <point x="952" y="1477"/>
      <point x="719" y="1477" type="curve" smooth="yes"/>
      <point x="326" y="1477"/>
      <point x="47" y="1185"/>
      <point x="47" y="760" type="curve" smooth="yes"/>
      <point x="47" y="696" type="line" smooth="yes"/>
      <point x="47" y="271"/>
      <point x="326" y="-21"/>
      <point x="719" y="-21" type="curve" smooth="yes"/>
      <point x="952" y="-21"/>
      <point x="1140" y="60"/>
      <point x="1266" y="211" type="curve"/>
      <point x="1266" y="514" type="line"/>
      <point x="1024" y="514" type="line"/>
      <point x="996" y="327" type="line"/>
      <point x="947" y="270"/>
      <point x="850" y="239"/>
      <point x="739" y="239" type="curve" smooth="yes"/>
      <point x="498" y="239"/>
      <point x="369" y="427"/>
      <point x="369" y="696" type="curve" smooth="yes"/>
      <point x="369" y="762" type="line" smooth="yes"/>
      <point x="369" y="1032"/>
      <point x="498" y="1217"/>
      <point x="739" y="1217" type="curve" smooth="yes"/>
      <point x="859" y="1217"/>
      <point x="943" y="1186"/>
      <point x="996" y="1129" type="curve"/>
      <point x="1024" y="942" type="line"/>
      <point x="1266" y="942" type="line"/>
    </contour>
  </outline>
</glyph>
<glyph name="F" format="1">
  <advance width="1763"/>
  <unicode hex="0046"/>
  <outline>
    <contour>
      <point x="527" y="1456" type="line"/>
      <point x="204" y="1456" type="line"/>
      <point x="204" y="0" type="line"/>
      <point x="527" y="0" type="line"/>
    </contour>
    <contour>
      <point x="1019" y="846" type="line"/>
      <point x="439" y="846" type="line"/>
      <point x="439" y="586" type="line"/>
      <point x="1019" y="586" type="line"/>
    </contour>
    <contour>
      <point x="1221" y="1456" type="line"/>
      <point x="439" y="1456" type="line"/>
      <point x="439" y="1196" type="line"/>
      <point x="1221" y="1196" type="line"/>
    </contour>
    <contour>
      <point x="1221" y="1456" type="line"/>
      <point x="951" y="1456" type="line"/>
      <point x="980" y="1033" type="line"/>
      <point x="1221" y="1033" type="line"/>
    </contour>
    <contour>
      <point x="204" y="0" type="line"/>
      <point x="204" y="230" type="line"/>
      <point x="51" y="200" type="line"/>
      <point x="51" y="0" type="line"/>
    </contour>
    <contour>
      <point x="527" y="0" type="line"/>
      <point x="680" y="0" type="line"/>
      <point x="680" y="200" type="line"/>
      <point x="527" y="230" type="line"/>
    </contour>
    <contour>
      <point x="204" y="1456" type="line"/>
      <point x="51" y="1456" type="line"/>
      <point x="51" y="1256" type="line"/>
      <point x="204" y="1226" type="line"/>
    </contour>
  </outline>
</glyph>
<glyph name="Q" format="1">
  <advance width="1950"/>
  <unicode hex="0051"/>
  <outline>
    <contour>
      <point x="951" y="236" type="line"/>
      <point x="760" y="66" type="line"/>
      <point x="1223" y="-245" type="line"/>
      <point x="1452" y="-68" type="line"/>
    </contour>
    <contour>
      <point x="1394" y="739" type="line" smooth="yes"/>
      <point x="1394" y="1159"/>
      <point x="1133" y="1477"/>
      <point x="728" y="1477" type="curve" smooth="yes"/>
      <point x="323" y="1477"/>
      <point x="64" y="1159"/>
      <point x="64" y="739" type="curve" smooth="yes"/>
      <point x="64" y="717" type="line" smooth="yes"/>
      <point x="64" y="297"/>
      <point x="325" y="-21"/>
      <point x="730" y="-21" type="curve" smooth="yes"/>
      <point x="1135" y="-21"/>
      <point x="1394" y="297"/>
      <point x="1394" y="717" type="curve" smooth="yes"/>
    </contour>
    <contour>
      <point x="1072" y="717" type="line" smooth="yes"/>
      <point x="1072" y="450"/>
      <point x="975" y="239"/>
      <point x="730" y="239" type="curve" smooth="yes"/>
      <point x="483" y="239"/>
      <point x="386" y="450"/>
      <point x="386" y="717" type="curve" smooth="yes"/>
      <point x="386" y="741" type="line" smooth="yes"/>
      <point x="386" y="1008"/>
      <point x="481" y="1217"/>
      <point x="728" y="1217" type="curve" smooth="yes"/>
      <point x="973" y="1217"/>
      <point x="1072" y="1008"/>
      <point x="1072" y="741" type="curve" smooth="yes"/>
    </contour>
  </outline>
</glyph>
<glyph name="T" format="1">
  <advance width="1908"/>
  <unicode hex="0054"/>
  <outline>
    <contour>
      <point x="865" y="1456" type="line"/>
      <point x="542" y="1456" type="line"/>
      <point x="542" y="0" type="line"/>
      <point x="865" y="0" type="line"/>
    </contour>
    <contour>
      <point x="1268" y="1456" type="line"/>
      <point x="141" y="1456" type="line"/>
      <point x="141" y="1196" type="line"/>
      <point x="1268" y="1196" type="line"/>
    </contour>
    <contour>
      <point x="41" y="1456" type="line"/>
      <point x="41" y="1033" type="line"/>
      <point x="282" y="1033" type="line"/>
      <point x="311" y="1456" type="line"/>
    </contour>
    <contour>
      <point x="1368" y="1456" type="line"/>
      <point x="1098" y="1456" type="line"/>
      <point x="1127" y="1033" type="line"/>
      <point x="1368" y="1033" type="line"/>
    </contour>
    <contour>
      <point x="542" y="0" type="line"/>
      <point x="542" y="230" type="line"/>
      <point x="389" y="200" type="line"/>
      <point x="389" y="0" type="line"/>
    </contour>
    <contour>
      <point x="865" y="0" type="line"/>
      <point x="1018" y="0" type="line"/>
      <point x="1018" y="200" type="line"/>
      <point x="865" y="230" type="line"/>
    </contour>
  </outline>
</glyph>
<glyph name="backslash" format="1">
  <advance width="1358"/>
  <unicode hex="005C"/>
  <outline>
    <contour>
      <point x="612" y="-125" type="line"/>
      <point x="934" y="-125" type="line"/>
      <point x="326" y="1456" type="line"/>
      <point x="4" y="1456" type="line"/>
    </contour>
  </outline>
</glyph>
<glyph name="f" format="1">
  <advance width="1273"/>
  <unicode hex="0066"/>
  <outline>
    <contour>
      <point x="537" y="0" type="line"/>
      <point x="537" y="1194" type="line" smooth="yes"/>
      <point x="537" y="1276"/>
      <point x="586" y="1321"/>
      <point x="673" y="1321" type="curve" smooth="yes"/>
      <point x="717" y="1321"/>
      <point x="743" y="1317"/>
      <point x="773" y="1311" type="curve"/>
      <point x="798" y="1560" type="line"/>
      <point x="742" y="1572"/>
      <point x="689" y="1581"/>
      <point x="633" y="1581" type="curve" smooth="yes"/>
      <point x="369" y="1581"/>
      <point x="214" y="1445"/>
      <point x="214" y="1194" type="curve" smooth="yes"/>
      <point x="214" y="0" type="line"/>
    </contour>
    <contour>
      <point x="749" y="1082" type="line"/>
      <point x="56" y="1082" type="line"/>
      <point x="56" y="848" type="line"/>
      <point x="749" y="848" type="line"/>
    </contour>
    <contour>
      <point x="214" y="0" type="line"/>
      <point x="214" y="230" type="line"/>
      <point x="81" y="200" type="line"/>
      <point x="81" y="0" type="line"/>
    </contour>
    <contour>
      <point x="537" y="0" type="line"/>
      <point x="670" y="0" type="line"/>
      <point x="670" y="200" type="line"/>
      <point x="537" y="230" type="line"/>
    </contour>
  </outline>
</glyph>
<glyph name="g" format="1">
  <advance width="1674"/>
  <unicode hex="0067"/>
  <outline>
    <contour>
      <point x="791" y="1082" type="line"/>
      <point x="750" y="826" type="line"/>
      <point x="750" y="44" type="line" smooth="yes"/>
      <point x="750" y="-95"/>
      <point x="685" y="-185"/>
      <point x="550" y="-185" type="curve" smooth="yes"/>
      <point x="434" y="-185"/>
      <point x="348" y="-159"/>
      <point x="258" y="-122" type="curve"/>
      <point x="203" y="-352" type="line"/>
      <point x="311" y="-404"/>
      <point x="440" y="-437"/>
      <point x="552" y="-437" type="curve" smooth="yes"/>
      <point x="875" y="-437"/>
      <point x="1073" y="-247"/>
      <point x="1073" y="42" type="curve" smooth="yes"/>
      <point x="1073" y="1082" type="line"/>
    </contour>
    <contour>
      <point x="79" y="518" type="line" smooth="yes"/>
      <point x="79" y="203"/>
      <point x="227" y="-21"/>
      <point x="499" y="-21" type="curve" smooth="yes"/>
      <point x="749" y="-21"/>
      <point x="850" y="217"/>
      <point x="891" y="510" type="curve"/>
      <point x="891" y="535" type="line"/>
      <point x="850" y="848"/>
      <point x="749" y="1102"/>
      <point x="501" y="1102" type="curve" smooth="yes"/>
      <point x="227" y="1102"/>
      <point x="79" y="868"/>
      <point x="79" y="539" type="curve" smooth="yes"/>
    </contour>
    <contour>
      <point x="401" y="539" type="line" smooth="yes"/>
      <point x="401" y="707"/>
      <point x="449" y="842"/>
      <point x="583" y="842" type="curve" smooth="yes"/>
      <point x="730" y="842"/>
      <point x="791" y="738"/>
      <point x="791" y="562" type="curve" smooth="yes"/>
      <point x="791" y="483" type="line" smooth="yes"/>
      <point x="791" y="329"/>
      <point x="730" y="239"/>
      <point x="581" y="239" type="curve" smooth="yes"/>
      <point x="445" y="239"/>
      <point x="401" y="356"/>
      <point x="401" y="518" type="curve" smooth="yes"/>
    </contour>
  </outline>
</glyph>
<glyph name="l" format="1">
  <advance width="1155"/>
  <unicode hex="006C"/>
  <outline>
    <contour>
      <point x="499" y="1560" type="line"/>
      <point x="176" y="1560" type="line"/>
      <point x="176" y="0" type="line"/>
      <point x="499" y="0" type="line"/>
    </contour>
    <contour>
      <point x="176" y="0" type="line"/>
      <point x="176" y="230" type="line"/>
      <point x="43" y="200" type="line"/>
      <point x="43" y="0" type="line"/>
    </contour>
    <contour>
      <point x="499" y="0" type="line"/>
      <point x="632" y="0" type="line"/>
      <point x="632" y="200" type="line"/>
      <point x="499" y="230" type="line"/>
    </contour>
    <contour>
      <point x="176" y="1560" type="line"/>
      <point x="23" y="1560" type="line"/>
      <point x="23" y="1360" type="line"/>
      <point x="176" y="1330" type="line"/>
    </contour>
  </outline>
</glyph>
<glyph name="z" format="1">
  <advance width="1566"/>
  <unicode hex="007A"/>
  <outline>
    <contour>
      <point x="992" y="260" type="line"/>
      <point x="160" y="260" type="line"/>
      <point x="160" y="0" type="line"/>
      <point x="992" y="0" type="line"/>
    </contour>
    <contour>
      <point x="980" y="900" type="line"/>
      <point x="980" y="1082" type="line"/>
      <point x="760" y="1082" type="line"/>
      <point x="80" y="188" type="line"/>
      <point x="80" y="0" type="line"/>
      <point x="299" y="0" type="line"/>
    </contour>
    <contour>
      <point x="872" y="1082" type="line"/>
      <point x="99" y="1082" type="line"/>
      <point x="99" y="822" type="line"/>
      <point x="872" y="822" type="line"/>
    </contour>
    <contour>
      <point x="99" y="1082" type="line"/>
      <point x="99" y="689" type="line"/>
      <point x="340" y="689" type="line"/>
      <point x="369" y="1082" type="line"/>
    </contour>
    <contour>
      <point x="992" y="0" type="line"/>
      <point x="992" y="393" type="line"/>
      <point x="752" y="393" type="line"/>
      <point x="722" y="0" type="line"/>
    </contour>
  </outline>
</glyph>
<glyph name="dieresis" format="1">
  <advance width="1544"/>
  <unicode hex="00A8"/>
  <outline>
    <contour>
      <point x="934" y="1456" type="line"/>
      <point x="652" y="1456" type="line"/>
      <point x="652" y="1252" type="line"/>
      <point x="934" y="1252" type="line"/>
    </contour>
    <contour>
      <point x="424" y="1456" type="line"/>
      <point x="142" y="1456" type="line"/>
      <point x="142" y="1252" type="line"/>
      <point x="424" y="1252" type="line"/>
    </contour>
  </outline>
</glyph>
<glyph name="registered" format="1">
  <advance width="2057"/>
  <unicode hex="00AE"/>
  <outline>
    <contour>
      <point x="803" y="653" type="line" smooth="yes"/>
      <point x="842" y="653"/>
      <point x="823" y="653"/>
      <point x="858" y="674" type="curve"/>
      <point x="862" y="674"/>
      <point x="867" y="688"/>
      <point x="871" y="688" type="curve"/>
      <point x="1012" y="726"/>
      <point x="1090" y="794"/>
      <point x="1090" y="902" type="curve" smooth="yes"/>
      <point x="1090" y="1074"/>
      <point x="963" y="1166"/>
      <point x="765" y="1166" type="curve" smooth="yes"/>
      <point x="484" y="1166" type="line"/>
      <point x="484" y="316" type="line"/>
      <point x="635" y="316" type="line"/>
      <point x="635" y="1033" type="line"/>
      <point x="765" y="1033" type="line" smooth="yes"/>
      <point x="895" y="1033"/>
      <point x="940" y="1000"/>
      <point x="940" y="903" type="curve" smooth="yes"/>
      <point x="940" y="826"/>
      <point x="858" y="787"/>
      <point x="765" y="787" type="curve" smooth="yes"/>
      <point x="587" y="787" type="line"/>
      <point x="589" y="653" type="line"/>
    </contour>
    <contour>
      <point x="793" y="653" type="line"/>
      <point x="897" y="653"/>
      <point x="936" y="608"/>
      <point x="936" y="514" type="curve" smooth="yes"/>
      <point x="936" y="460" type="line" smooth="yes"/>
      <point x="936" y="431"/>
      <point x="936" y="350"/>
      <point x="949" y="316" type="curve"/>
      <point x="1104" y="316" type="line"/>
      <point x="1104" y="332" type="line"/>
      <point x="1091" y="362"/>
      <point x="1087" y="409"/>
      <point x="1087" y="459" type="curve" smooth="yes"/>
      <point x="1087" y="515" type="line" smooth="yes"/>
      <point x="1087" y="661"/>
      <point x="1023" y="768"/>
      <point x="814" y="768" type="curve"/>
    </contour>
    <contour>
      <point x="191" y="729" type="curve" smooth="yes"/>
      <point x="191" y="1082"/>
      <point x="454" y="1351"/>
      <point x="779" y="1351" type="curve" smooth="yes"/>
      <point x="1103" y="1351"/>
      <point x="1366" y="1082"/>
      <point x="1366" y="729" type="curve" smooth="yes"/>
      <point x="1366" y="376"/>
      <point x="1103" y="104"/>
      <point x="779" y="104" type="curve" smooth="yes"/>
      <point x="454" y="104"/>
      <point x="191" y="376"/>
    </contour>
    <contour>
      <point x="69" y="729" type="curve" smooth="yes"/>
      <point x="69" y="306"/>
      <point x="387" y="-21"/>
      <point x="779" y="-21" type="curve" smooth="yes"/>
      <point x="1170" y="-21"/>
      <point x="1489" y="306"/>
      <point x="1489" y="729" type="curve" smooth="yes"/>
      <point x="1489" y="1152"/>
      <point x="1170" y="1476"/>
      <point x="779" y="1476" type="curve" smooth="yes"/>
      <point x="387" y="1476"/>
      <point x="69" y="1152"/>
    </contour>
  </outline>
</glyph>
<glyph name="lslash" format="1">
  <advance width="1155"/>
  <unicode hex="0142"/>
  <outline>
    <contour>
      <point x="634" y="967" type="line"/>
      <point x="44" y="780" type="line"/>
      <point x="44" y="572" type="line"/>
      <point x="634" y="759" type="line"/>
    </contour>
    <contour>
      <point x="490" y="1560" type="line"/>
      <point x="167" y="1560" type="line"/>
      <point x="167" y="0" type="line"/>
      <point x="490" y="0" type="line"/>
    </contour>
    <contour>
      <point x="167" y="0" type="line"/>
      <point x="167" y="230" type="line"/>
      <point x="34" y="200" type="line"/>
      <point x="34" y="0" type="line"/>
    </contour>
    <contour>
      <point x="490" y="0" type="line"/>
      <point x="623" y="0" type="line"/>
      <point x="623" y="200" type="line"/>
      <point x="490" y="230" type="line"/>
    </contour>
    <contour>
      <point x="167" y="1560" type="line"/>
      <point x="14" y="1560" type="line"/>
      <point x="14" y="1360" type="line"/>
      <point x="167" y="1330" type="line"/>
    </contour>
  </outline>
</glyph>
<glyph name="uhorn" format="1">
  <advance width="1850"/>
  <unicode hex="01B0"/>
  <outline>
    <contour>
      <point x="1215" y="1181" type="line"/>
      <point x="1215" y="1013"/>
      <point x="1188" y="930"/>
      <point x="988" y="930" type="curve"/>
      <point x="987" y="787" type="line"/>
      <point x="1295" y="787"/>
      <point x="1395" y="921"/>
      <point x="1395" y="1181" type="curve"/>
    </contour>
    <contour>
      <point x="797" y="263" type="line"/>
      <point x="838" y="0" type="line"/>
      <point x="1120" y="0" type="line"/>
      <point x="1120" y="1082" type="line"/>
      <point x="797" y="1082" type="line"/>
    </contour>
    <contour>
      <point x="859" y="503" type="line"/>
      <point x="859" y="353"/>
      <point x="796" y="239"/>
      <point x="620" y="239" type="curve" smooth="yes"/>
      <point x="532" y="239"/>
      <point x="479" y="297"/>
      <point x="479" y="420" type="curve" smooth="yes"/>
      <point x="479" y="1082" type="line"/>
      <point x="157" y="1082" type="line"/>
      <point x="157" y="422" type="line" smooth="yes"/>
      <point x="157" y="108"/>
      <point x="304" y="-21"/>
      <point x="518" y="-21" type="curve" smooth="yes"/>
      <point x="779" y="-21"/>
      <point x="917" y="202"/>
      <point x="917" y="505" type="curve"/>
    </contour>
    <contour>
      <point x="797" y="1082" type="line"/>
      <point x="674" y="1082" type="line"/>
      <point x="674" y="882" type="line"/>
      <point x="797" y="852" type="line"/>
    </contour>
    <contour>
      <point x="157" y="1082" type="line"/>
      <point x="39" y="1082" type="line"/>
      <point x="39" y="882" type="line"/>
      <point x="157" y="852" type="line"/>
    </contour>
    <contour>
      <point x="1120" y="0" type="line"/>
      <point x="1253" y="0" type="line"/>
      <point x="1253" y="200" type="line"/>
      <point x="1120" y="230" type="line"/>
    </contour>
  </outline>
</glyph>
<glyph name="schwa" format="1">
  <advance width="1620"/>
  <unicode hex="0259"/>
  <outline>
    <contour>
      <point x="531" y="1104" type="curve" smooth="yes"/>
      <point x="346" y="1104"/>
      <point x="194" y="1046"/>
      <point x="111" y="983" type="curve"/>
      <point x="191" y="777" type="line"/>
      <point x="279" y="815"/>
      <point x="347" y="844"/>
      <point x="490" y="844" type="curve" smooth="yes"/>
      <point x="654" y="844"/>
      <point x="730" y="718"/>
      <point x="730" y="578" type="curve" smooth="yes"/>
      <point x="730" y="540" type="line" smooth="yes"/>
      <point x="730" y="379"/>
      <point x="690" y="241"/>
      <point x="556" y="241" type="curve" smooth="yes"/>
      <point x="449" y="241"/>
      <point x="404" y="304"/>
      <point x="404" y="411" type="curve" smooth="yes"/>
      <point x="404" y="437" type="line"/>
      <point x="925" y="437" type="line"/>
      <point x="925" y="648" type="line"/>
      <point x="89" y="648" type="line"/>
      <point x="89" y="471" type="line" smooth="yes"/>
      <point x="89" y="170"/>
      <point x="260" y="-19"/>
      <point x="556" y="-19" type="curve" smooth="yes"/>
      <point x="878" y="-21"/>
      <point x="1052" y="224"/>
      <point x="1052" y="540" type="curve" smooth="yes"/>
      <point x="1052" y="578" type="line" smooth="yes"/>
      <point x="1052" y="871"/>
      <point x="854" y="1104"/>
    </contour>
  </outline>
</glyph>
<glyph name="circumflex" format="1">
  <advance width="1411"/>
  <unicode hex="02C6"/>
  <outline>
    <contour>
      <point x="565" y="1518" type="line"/>
      <point x="380" y="1518" type="line"/>
      <point x="86" y="1278" type="line"/>
      <point x="86" y="1252" type="line"/>
      <point x="315" y="1252" type="line"/>
      <point x="472" y="1398" type="line"/>
      <point x="630" y="1252" type="line"/>
      <point x="864" y="1252" type="line"/>
      <point x="864" y="1274" type="line"/>
    </contour>
  </outline>
</glyph>
<glyph name="uni030F" format="1">
  <advance width="1501"/>
  <unicode hex="030F"/>
  <outline>
    <contour>
      <point x="357" y="1518" type="line"/>
      <point x="55" y="1518" type="line"/>
      <point x="341" y="1252" type="line"/>
      <point x="602" y="1252" type="line"/>
    </contour>
    <contour>
      <point x="765" y="1518" type="line"/>
      <point x="463" y="1518" type="line"/>
      <point x="708" y="1252" type="line"/>
      <point x="969" y="1252" type="line"/>
    </contour>
  </outline>
</glyph>
<glyph name="Gamma" format="1">
  <advance width="1725"/>
  <unicode hex="0393"/>
  <outline>
    <contour>
      <point x="1181" y="1456" type="line"/>
      <point x="214" y="1456" type="line"/>
      <point x="214" y="0" type="line"/>
      <point x="537" y="0" type="line"/>
      <point x="537" y="1196" type="line"/>
      <point x="1181" y="1196" type="line"/>
    </contour>
    <contour>
      <point x="214" y="0" type="line"/>
      <point x="214" y="230" type="line"/>
      <point x="61" y="200" type="line"/>
      <point x="61" y="0" type="line"/>
    </contour>
    <contour>
      <point x="537" y="0" type="line"/>
      <point x="690" y="0" type="line"/>
      <point x="690" y="200" type="line"/>
      <point x="537" y="230" type="line"/>
    </contour>
    <contour>
      <point x="1181" y="1456" type="line"/>
      <point x="911" y="1456" type="line"/>
      <point x="940" y="1063" type="line"/>
      <point x="1181" y="1063" type="line"/>
    </contour>
    <contour>
      <point x="214" y="1456" type="line"/>
      <point x="61" y="1456" type="line"/>
      <point x="61" y="1256" type="line"/>
      <point x="214" y="1226" type="line"/>
    </contour>
  </outline>
</glyph>
<glyph name="iota" format="1">
  <advance width="1217"/>
  <unicode hex="03B9"/>
  <outline>
    <contour>
      <point x="171" y="1082" type="line"/>
      <point x="171" y="350" type="line" smooth="yes"/>
      <point x="171" y="101"/>
      <point x="302" y="-21"/>
      <point x="522" y="-21" type="curve" smooth="yes"/>
      <point x="594" y="-21"/>
      <point x="643" y="-16"/>
      <point x="708" y="3" type="curve"/>
      <point x="683" y="253" type="line"/>
      <point x="647" y="245"/>
      <point x="630" y="240"/>
      <point x="583" y="240" type="curve" smooth="yes"/>
      <point x="522" y="240"/>
      <point x="494" y="269"/>
      <point x="494" y="350" type="curve" smooth="yes"/>
      <point x="494" y="1082" type="line"/>
    </contour>
    <contour>
      <point x="171" y="1082" type="line"/>
      <point x="18" y="1082" type="line"/>
      <point x="18" y="882" type="line"/>
      <point x="171" y="852" type="line"/>
    </contour>
  </outline>
</glyph>
<glyph name="tau" format="1">
  <advance width="1478"/>
  <unicode hex="03C4"/>
  <outline>
    <contour>
      <point x="30" y="1082" type="line"/>
      <point x="29" y="824" type="line"/>
      <point x="930" y="824" type="line"/>
      <point x="930" y="1082" type="line"/>
    </contour>
    <contour>
      <point x="311" y="1081" type="line"/>
      <point x="311" y="350" type="line" smooth="yes"/>
      <point x="311" y="101"/>
      <point x="442" y="-21"/>
      <point x="662" y="-21" type="curve" smooth="yes"/>
      <point x="734" y="-21"/>
      <point x="783" y="-16"/>
      <point x="848" y="3" type="curve"/>
      <point x="823" y="253" type="line"/>
      <point x="787" y="245"/>
      <point x="770" y="240"/>
      <point x="723" y="240" type="curve" smooth="yes"/>
      <point x="662" y="240"/>
      <point x="634" y="269"/>
      <point x="634" y="350" type="curve" smooth="yes"/>
      <point x="634" y="1081" type="line"/>
    </contour>
  </outline>
</glyph>
<glyph name="phi" format="1">
  <advance width="2066"/>
  <unicode hex="03C6"/>
  <outline>
    <contour>
      <point x="646" y="-478" type="line"/>
      <point x="968" y="-478" type="line"/>
      <point x="968" y="795" type="line" smooth="yes"/>
      <point x="968" y="814"/>
      <point x="967" y="843"/>
      <point x="1015" y="843" type="curve" smooth="yes"/>
      <point x="1138" y="843"/>
      <point x="1208" y="739"/>
      <point x="1210" y="565" type="curve" smooth="yes"/>
      <point x="1210" y="379"/>
      <point x="1123" y="239"/>
      <point x="817" y="239" type="curve" smooth="yes"/>
      <point x="495" y="239"/>
      <point x="404" y="384"/>
      <point x="404" y="607" type="curve" smooth="yes"/>
      <point x="406" y="721"/>
      <point x="449" y="852"/>
      <point x="527" y="942" type="curve"/>
      <point x="296" y="1102" type="line"/>
      <point x="180" y="1004"/>
      <point x="82" y="818"/>
      <point x="82" y="607" type="curve" smooth="yes"/>
      <point x="82" y="280"/>
      <point x="262" y="-21"/>
      <point x="817" y="-21" type="curve" smooth="yes"/>
      <point x="1357" y="-21"/>
      <point x="1532" y="269"/>
      <point x="1532" y="565" type="curve" smooth="yes"/>
      <point x="1532" y="804"/>
      <point x="1374" y="1103"/>
      <point x="968" y="1103" type="curve" smooth="yes"/>
      <point x="794" y="1103"/>
      <point x="646" y="970"/>
      <point x="646" y="786" type="curve" smooth="yes"/>
    </contour>
  </outline>
</glyph>
<glyph name="psi" format="1">
  <advance width="2189"/>
  <unicode hex="03C8"/>
  <outline>
    <contour>
      <point x="734" y="1082" type="line"/>
      <point x="734" y="-478" type="line"/>
      <point x="1056" y="-478" type="line"/>
      <point x="1056" y="1082" type="line"/>
    </contour>
    <contour>
      <point x="520" y="871" type="line" smooth="yes"/>
      <point x="520" y="1027"/>
      <point x="426" y="1102"/>
      <point x="269" y="1102" type="curve" smooth="yes"/>
      <point x="182" y="1102"/>
      <point x="88" y="1081"/>
      <point x="40" y="1061" type="curve"/>
      <point x="65" y="834" type="line"/>
      <point x="87" y="838"/>
      <point x="99" y="841"/>
      <point x="128" y="841" type="curve" smooth="yes"/>
      <point x="175" y="841"/>
      <point x="197" y="822"/>
      <point x="197" y="771" type="curve" smooth="yes"/>
      <point x="197" y="587" type="line" smooth="yes"/>
      <point x="197" y="157"/>
      <point x="484" y="-21"/>
      <point x="915" y="-21" type="curve" smooth="yes"/>
      <point x="1455" y="-21"/>
      <point x="1630" y="280"/>
      <point x="1630" y="607" type="curve" smooth="yes"/>
      <point x="1630" y="809"/>
      <point x="1568" y="969"/>
      <point x="1496" y="1082" type="curve"/>
      <point x="1205" y="1082" type="line"/>
      <point x="1262" y="930"/>
      <point x="1306" y="770"/>
      <point x="1308" y="607" type="curve" smooth="yes"/>
      <point x="1308" y="384"/>
      <point x="1211" y="239"/>
      <point x="905" y="239" type="curve" smooth="yes"/>
      <point x="694" y="239"/>
      <point x="520" y="312"/>
      <point x="520" y="584" type="curve" smooth="yes"/>
    </contour>
  </outline>
</glyph>
<glyph name="omega" format="1">
  <advance width="2199"/>
  <unicode hex="03C9"/>
  <outline>
    <contour>
      <point x="1186" y="1082" type="line"/>
      <point x="1265" y="917"/>
      <point x="1315" y="743"/>
      <point x="1320" y="566" type="curve" smooth="yes"/>
      <point x="1320" y="405"/>
      <point x="1288" y="239"/>
      <point x="1182" y="239" type="curve" smooth="yes"/>
      <point x="1105" y="239"/>
      <point x="1041" y="307"/>
      <point x="1041" y="501" type="curve" smooth="yes"/>
      <point x="1041" y="872" type="line"/>
      <point x="800" y="872" type="line"/>
      <point x="800" y="535" type="line" smooth="yes"/>
      <point x="800" y="178"/>
      <point x="956" y="-21"/>
      <point x="1192" y="-21" type="curve" smooth="yes"/>
      <point x="1533" y="-21"/>
      <point x="1641" y="231"/>
      <point x="1641" y="566" type="curve" smooth="yes"/>
      <point x="1641" y="786"/>
      <point x="1570" y="959"/>
      <point x="1487" y="1082" type="curve"/>
    </contour>
    <contour>
      <point x="251" y="1082" type="line"/>
      <point x="169" y="959"/>
      <point x="97" y="786"/>
      <point x="97" y="566" type="curve" smooth="yes"/>
      <point x="97" y="231"/>
      <point x="206" y="-21"/>
      <point x="547" y="-21" type="curve" smooth="yes"/>
      <point x="782" y="-21"/>
      <point x="939" y="178"/>
      <point x="939" y="535" type="curve" smooth="yes"/>
      <point x="939" y="872" type="line"/>
      <point x="698" y="872" type="line"/>
      <point x="698" y="501" type="line" smooth="yes"/>
      <point x="698" y="307"/>
      <point x="634" y="239"/>
      <point x="557" y="239" type="curve" smooth="yes"/>
      <point x="450" y="239"/>
      <point x="419" y="405"/>
      <point x="419" y="566" type="curve" smooth="yes"/>
      <point x="424" y="743"/>
      <point x="474" y="917"/>
      <point x="552" y="1082" type="curve"/>
    </contour>
  </outline>
</glyph>
<glyph name="uni0402" format="1">
  <advance width="2112"/>
  <unicode hex="0402"/>
  <outline>
    <contour>
      <point x="655" y="600" type="line"/>
      <point x="786" y="622"/>
      <point x="878" y="636"/>
      <point x="1026" y="636" type="curve" smooth="yes"/>
      <point x="1167" y="636"/>
      <point x="1248" y="555"/>
      <point x="1248" y="425" type="curve" smooth="yes"/>
      <point x="1248" y="356"/>
      <point x="1233" y="224"/>
      <point x="1022" y="224" type="curve"/>
      <point x="1022" y="-21" type="line"/>
      <point x="1444" y="-21"/>
      <point x="1570" y="236"/>
      <point x="1570" y="445" type="curve" smooth="yes"/>
      <point x="1570" y="755"/>
      <point x="1346" y="896"/>
      <point x="1026" y="896" type="curve" smooth="yes"/>
      <point x="898" y="896"/>
      <point x="779" y="864"/>
      <point x="655" y="836" type="curve"/>
    </contour>
    <contour>
      <point x="792" y="1456" type="line"/>
      <point x="469" y="1456" type="line"/>
      <point x="469" y="0" type="line"/>
      <point x="792" y="0" type="line"/>
    </contour>
    <contour>
      <point x="1305" y="1456" type="line"/>
      <point x="38" y="1456" type="line"/>
      <point x="38" y="1196" type="line"/>
      <point x="1305" y="1196" type="line"/>
    </contour>
    <contour>
      <point x="1305" y="1456" type="line"/>
      <point x="1035" y="1456" type="line"/>
      <point x="1064" y="1063" type="line"/>
      <point x="1305" y="1063" type="line"/>
    </contour>
    <contour>
      <point x="38" y="1456" type="line"/>
      <point x="38" y="1063" type="line"/>
      <point x="279" y="1063" type="line"/>
      <point x="308" y="1456" type="line"/>
    </contour>
    <contour>
      <point x="792" y="0" type="line"/>
      <point x="915" y="0" type="line"/>
      <point x="915" y="200" type="line"/>
      <point x="792" y="230" type="line"/>
    </contour>
    <contour>
      <point x="469" y="0" type="line"/>
      <point x="469" y="230" type="line"/>
      <point x="316" y="200" type="line"/>
      <point x="316" y="0" type="line"/>
    </contour>
  </outline>
</glyph>
<glyph name="uni0418" format="1">
  <advance width="2116"/>
  <unicode hex="0418"/>
  <outline>
    <contour>
      <point x="542" y="296" type="line"/>
      <point x="1316" y="1049" type="line"/>
      <point x="1099" y="1150" type="line"/>
      <point x="324" y="397" type="line"/>
    </contour>
    <contour>
      <point x="1099" y="0" type="line"/>
      <point x="1422" y="0" type="line"/>
      <point x="1422" y="1456" type="line"/>
      <point x="1099" y="1456" type="line"/>
    </contour>
    <contour>
      <point x="220" y="0" type="line"/>
      <point x="542" y="0" type="line"/>
      <point x="542" y="1456" type="line"/>
      <point x="220" y="1456" type="line"/>
    </contour>
    <contour>
      <point x="220" y="1456" type="line"/>
      <point x="67" y="1456" type="line"/>
      <point x="67" y="1256" type="line"/>
      <point x="220" y="1226" type="line"/>
    </contour>
    <contour>
      <point x="542" y="1456" type="line"/>
      <point x="542" y="1226" type="line"/>
      <point x="695" y="1256" type="line"/>
      <point x="695" y="1456" type="line"/>
    </contour>
    <contour>
      <point x="220" y="0" type="line"/>
      <point x="220" y="230" type="line"/>
      <point x="67" y="200" type="line"/>
      <point x="67" y="0" type="line"/>
    </contour>
    <contour>
      <point x="1099" y="0" type="line"/>
      <point x="1099" y="230" type="line"/>
      <point x="946" y="200" type="line"/>
      <point x="946" y="0" type="line"/>
    </contour>
    <contour>
      <point x="1422" y="0" type="line"/>
      <point x="1575" y="0" type="line"/>
      <point x="1575" y="200" type="line"/>
      <point x="1422" y="230" type="line"/>
    </contour>
    <contour>
      <point x="1422" y="1456" type="line"/>
      <point x="1422" y="1226" type="line"/>
      <point x="1575" y="1256" type="line"/>
      <point x="1575" y="1456" type="line"/>
    </contour>
    <contour>
      <point x="542" y="0" type="line"/>
      <point x="695" y="0" type="line"/>
      <point x="695" y="200" type="line"/>
      <point x="542" y="230" type="line"/>
    </contour>
    <contour>
      <point x="1099" y="1456" type="line"/>
      <point x="946" y="1456" type="line"/>
      <point x="946" y="1256" type="line"/>
      <point x="1099" y="1226" type="line"/>
    </contour>
  </outline>
</glyph>
<glyph name="uni0463" format="1">
  <advance width="1755"/>
  <unicode hex="0463"/>
  <outline>
    <contour>
      <point x="433" y="805" type="line"/>
      <point x="433" y="546" type="line"/>
      <point x="742" y="546" type="line" smooth="yes"/>
      <point x="861" y="546"/>
      <point x="910" y="485"/>
      <point x="910" y="405" type="curve" smooth="yes"/>
      <point x="910" y="322"/>
      <point x="861" y="258"/>
      <point x="742" y="258" type="curve" smooth="yes"/>
      <point x="560" y="258" type="line"/>
      <point x="560" y="1562" type="line"/>
      <point x="237" y="1562" type="line"/>
      <point x="237" y="0" type="line"/>
      <point x="742" y="0" type="line" smooth="yes"/>
      <point x="1049" y="0"/>
      <point x="1231" y="163"/>
      <point x="1231" y="403" type="curve" smooth="yes"/>
      <point x="1231" y="641"/>
      <point x="1049" y="805"/>
      <point x="742" y="805" type="curve" smooth="yes"/>
    </contour>
    <contour>
      <point x="793" y="1272" type="line"/>
      <point x="92" y="1272" type="line"/>
      <point x="92" y="1081" type="line"/>
      <point x="793" y="1081" type="line"/>
    </contour>
    <contour>
      <point x="237" y="1562" type="line"/>
      <point x="84" y="1562" type="line"/>
      <point x="84" y="1362" type="line"/>
      <point x="237" y="1332" type="line"/>
    </contour>
    <contour>
      <point x="237" y="0" type="line"/>
      <point x="237" y="230" type="line"/>
      <point x="84" y="200" type="line"/>
      <point x="84" y="0" type="line"/>
    </contour>
  </outline>
</glyph>
<glyph name="uni046D" format="1">
  <advance width="2797"/>
  <unicode hex="046D"/>
  <outline>
    <contour>
      <point x="1256" y="615" type="line"/>
      <point x="268" y="615" type="line"/>
      <point x="268" y="382" type="line"/>
      <point x="1256" y="382" type="line"/>
    </contour>
    <contour>
      <point x="502" y="1082" type="line"/>
      <point x="179" y="1082" type="line"/>
      <point x="179" y="0" type="line"/>
      <point x="502" y="0" type="line"/>
    </contour>
    <contour>
      <point x="179" y="0" type="line"/>
      <point x="179" y="230" type="line"/>
      <point x="46" y="200" type="line"/>
      <point x="46" y="0" type="line"/>
    </contour>
    <contour>
      <point x="502" y="0" type="line"/>
      <point x="635" y="0" type="line"/>
      <point x="635" y="200" type="line"/>
      <point x="502" y="230" type="line"/>
    </contour>
    <contour>
      <point x="179" y="1082" type="line"/>
      <point x="26" y="1082" type="line"/>
      <point x="26" y="882" type="line"/>
      <point x="179" y="852" type="line"/>
    </contour>
    <contour>
      <point x="1139" y="0" type="line"/>
      <point x="1139" y="190" type="line" smooth="yes"/>
      <point x="1139" y="332"/>
      <point x="1193" y="373"/>
      <point x="1306" y="373" type="curve" smooth="yes"/>
      <point x="1630" y="373" type="line" smooth="yes"/>
      <point x="1743" y="373"/>
      <point x="1797" y="332"/>
      <point x="1797" y="190" type="curve" smooth="yes"/>
      <point x="1797" y="0" type="line"/>
      <point x="2119" y="0" type="line"/>
      <point x="2119" y="190" type="line" smooth="yes"/>
      <point x="2119" y="501"/>
      <point x="1935" y="617"/>
      <point x="1630" y="617" type="curve" smooth="yes"/>
      <point x="1306" y="617" type="line" smooth="yes"/>
      <point x="999" y="617"/>
      <point x="817" y="501"/>
      <point x="817" y="190" type="curve" smooth="yes"/>
      <point x="817" y="0" type="line"/>
    </contour>
    <contour>
      <point x="1874" y="1082" type="line"/>
      <point x="1111" y="1082" type="line"/>
      <point x="1111" y="880" type="line"/>
      <point x="1874" y="880" type="line"/>
    </contour>
    <contour>
      <point x="1414" y="502" type="line"/>
      <point x="1446" y="371" type="line"/>
      <point x="1616" y="371" type="line"/>
      <point x="2025" y="1082" type="line"/>
      <point x="1678" y="1082" type="line"/>
    </contour>
    <contour>
      <point x="1274" y="1082" type="line"/>
      <point x="927" y="1082" type="line"/>
      <point x="1337" y="371" type="line"/>
      <point x="1505" y="371" type="line"/>
      <point x="1542" y="496" type="line"/>
    </contour>
    <contour>
      <point x="1634" y="496" type="line"/>
      <point x="1312" y="496" type="line"/>
      <point x="1312" y="0" type="line"/>
      <point x="1634" y="0" type="line"/>
    </contour>
    <contour>
      <point x="2119" y="0" type="line"/>
      <point x="2242" y="0" type="line"/>
      <point x="2242" y="200" type="line"/>
      <point x="2119" y="230" type="line"/>
    </contour>
    <contour>
      <point x="817" y="0" type="line"/>
      <point x="817" y="230" type="line"/>
      <point x="694" y="200" type="line"/>
      <point x="694" y="0" type="line"/>
    </contour>
    <contour>
      <point x="927" y="1082" type="line"/>
      <point x="864" y="1082" type="line"/>
      <point x="864" y="882" type="line"/>
      <point x="1107" y="852" type="line"/>
    </contour>
    <contour>
      <point x="1634" y="0" type="line"/>
      <point x="1747" y="0" type="line"/>
      <point x="1747" y="200" type="line"/>
      <point x="1634" y="230" type="line"/>
    </contour>
    <contour>
      <point x="1312" y="0" type="line"/>
      <point x="1312" y="230" type="line"/>
      <point x="1199" y="200" type="line"/>
      <point x="1199" y="0" type="line"/>
    </contour>
    <contour>
      <point x="1845" y="852" type="line"/>
      <point x="2088" y="882" type="line"/>
      <point x="2088" y="1082" type="line"/>
      <point x="2025" y="1082" type="line"/>
    </contour>
  </outline>
</glyph>
<glyph name="uni0473" format="1">
  <advance width="1692"/>
  <unicode hex="0473"/>
  <outline>
    <contour>
      <point x="933" y="630" type="line"/>
      <point x="252" y="630" type="line"/>
      <point x="252" y="439" type="line"/>
      <point x="933" y="439" type="line"/>
    </contour>
    <contour>
      <point x="70" y="530" type="line" smooth="yes"/>
      <point x="70" y="214"/>
      <point x="254" y="-21"/>
      <point x="590" y="-21" type="curve" smooth="yes"/>
      <point x="925" y="-21"/>
      <point x="1108" y="214"/>
      <point x="1108" y="530" type="curve" smooth="yes"/>
      <point x="1108" y="551" type="line" smooth="yes"/>
      <point x="1108" y="867"/>
      <point x="925" y="1102"/>
      <point x="588" y="1102" type="curve" smooth="yes"/>
      <point x="254" y="1102"/>
      <point x="70" y="867"/>
      <point x="70" y="551" type="curve" smooth="yes"/>
    </contour>
    <contour>
      <point x="392" y="551" type="line" smooth="yes"/>
      <point x="392" y="709"/>
      <point x="440" y="842"/>
      <point x="588" y="842" type="curve" smooth="yes"/>
      <point x="739" y="842"/>
      <point x="786" y="709"/>
      <point x="786" y="551" type="curve" smooth="yes"/>
      <point x="786" y="530" type="line" smooth="yes"/>
      <point x="786" y="367"/>
      <point x="738" y="239"/>
      <point x="590" y="239" type="curve" smooth="yes"/>
      <point x="439" y="239"/>
      <point x="392" y="367"/>
      <point x="392" y="530" type="curve" smooth="yes"/>
    </contour>
  </outline>
</glyph>
<glyph name="uni0482" format="1">
  <advance width="1588"/>
  <unicode hex="0482"/>
  <outline>
    <contour>
      <point x="709" y="809" type="line"/>
      <point x="997" y="639" type="line"/>
      <point x="1073" y="766" type="line"/>
      <point x="780" y="937" type="line"/>
      <point x="1008" y="1342" type="line"/>
      <point x="836" y="1342" type="line"/>
      <point x="651" y="1016" type="line"/>
      <point x="360" y="1187" type="line"/>
      <point x="287" y="1057" type="line"/>
      <point x="577" y="886" type="line"/>
      <point x="375" y="526" type="line"/>
      <point x="82" y="697" type="line"/>
      <point x="11" y="569" type="line"/>
      <point x="300" y="398" type="line"/>
      <point x="75" y="0" type="line"/>
      <point x="250" y="0" type="line"/>
      <point x="431" y="319" type="line"/>
      <point x="722" y="149" type="line"/>
      <point x="794" y="277" type="line"/>
      <point x="505" y="449" type="line"/>
    </contour>
  </outline>
</glyph>
<glyph name="uni0489" format="1">
  <advance width="2399"/>
  <unicode hex="0489"/>
  <outline>
    <contour>
      <point x="912" y="-60" type="line"/>
      <point x="842" y="-413" type="line"/>
      <point x="938" y="-413" type="line"/>
      <point x="1060" y="-74" type="line"/>
      <point x="1049" y="-60" type="line"/>
    </contour>
    <contour>
      <point x="990" y="1126" type="line"/>
      <point x="1060" y="1478" type="line"/>
      <point x="964" y="1478" type="line"/>
      <point x="842" y="1140" type="line"/>
      <point x="854" y="1126" type="line"/>
    </contour>
    <contour>
      <point x="1532" y="492" type="line"/>
      <point x="1878" y="421" type="line"/>
      <point x="1878" y="519" type="line"/>
      <point x="1545" y="643" type="line"/>
      <point x="1532" y="631" type="line"/>
    </contour>
    <contour>
      <point x="368" y="572" type="line"/>
      <point x="22" y="643" type="line"/>
      <point x="22" y="545" type="line"/>
      <point x="355" y="421" type="line"/>
      <point x="368" y="433" type="line"/>
    </contour>
    <contour>
      <point x="1389" y="903" type="line"/>
      <point x="1560" y="1021"/>
      <point x="1658" y="1088"/>
      <point x="1683" y="1103" type="curve"/>
      <point x="1615" y="1171" type="line"/>
      <point x="1294" y="1018" type="line"/>
      <point x="1292" y="1002" type="line"/>
    </contour>
    <contour>
      <point x="511" y="120" type="line"/>
      <point x="217" y="-80" type="line"/>
      <point x="286" y="-149" type="line"/>
      <point x="606" y="4" type="line"/>
      <point x="608" y="21" type="line"/>
    </contour>
    <contour>
      <point x="566" y="958" type="line"/>
      <point x="368" y="1257" type="line"/>
      <point x="303" y="1188" type="line"/>
      <point x="451" y="862" type="line"/>
      <point x="468" y="860" type="line"/>
    </contour>
    <contour>
      <point x="1333" y="62" type="line"/>
      <point x="1530" y="-237" type="line"/>
      <point x="1596" y="-166" type="line"/>
      <point x="1447" y="159" type="line"/>
      <point x="1430" y="161" type="line"/>
    </contour>
  </outline>
</glyph>
<glyph name="uni0490" format="1">
  <advance width="1725"/>
  <unicode hex="0490"/>
  <outline>
    <contour>
      <point x="1181" y="1843" type="line"/>
      <point x="939" y="1843" type="line"/>
      <point x="859" y="1196" type="line"/>
      <point x="1181" y="1196" type="line"/>
    </contour>
    <contour>
      <point x="1181" y="1456" type="line"/>
      <point x="214" y="1456" type="line"/>
      <point x="214" y="0" type="line"/>
      <point x="537" y="0" type="line"/>
      <point x="537" y="1196" type="line"/>
      <point x="1181" y="1196" type="line"/>
    </contour>
    <contour>
      <point x="214" y="0" type="line"/>
      <point x="214" y="230" type="line"/>
      <point x="61" y="200" type="line"/>
      <point x="61" y="0" type="line"/>
    </contour>
    <contour>
      <point x="537" y="0" type="line"/>
      <point x="690" y="0" type="line"/>
      <point x="690" y="200" type="line"/>
      <point x="537" y="230" type="line"/>
    </contour>
    <contour>
      <point x="214" y="1456" type="line"/>
      <point x="61" y="1456" type="line"/>
      <point x="61" y="1256" type="line"/>
      <point x="214" y="1226" type="line"/>
    </contour>
  </outline>
</glyph>
<glyph name="uni04A0" format="1">
  <advance width="2456"/>
  <unicode hex="04A0"/>
  <outline>
    <contour>
      <point x="789" y="1456" type="line"/>
      <point x="80" y="1456" type="line"/>
      <point x="80" y="1195" type="line"/>
      <point x="789" y="1195" type="line"/>
    </contour>
    <contour>
      <point x="40" y="1456" type="line"/>
      <point x="40" y="1063" type="line"/>
      <point x="281" y="1063" type="line"/>
      <point x="310" y="1456" type="line"/>
    </contour>
    <contour>
      <point x="911" y="1456" type="line"/>
      <point x="588" y="1456" type="line"/>
      <point x="588" y="0" type="line"/>
      <point x="911" y="0" type="line"/>
    </contour>
    <contour>
      <point x="1437" y="0" type="line"/>
      <point x="1830" y="0" type="line"/>
      <point x="1286" y="818" type="line"/>
      <point x="1038" y="641" type="line"/>
    </contour>
    <contour>
      <point x="1437" y="0" type="line"/>
      <point x="1437" y="230" type="line"/>
      <point x="1234" y="200" type="line"/>
      <point x="1234" y="0" type="line"/>
    </contour>
    <contour>
      <point x="1830" y="0" type="line"/>
      <point x="1843" y="0" type="line"/>
      <point x="1843" y="200" type="line"/>
      <point x="1650" y="230" type="line"/>
    </contour>
    <contour>
      <point x="588" y="0" type="line"/>
      <point x="588" y="230" type="line"/>
      <point x="435" y="200" type="line"/>
      <point x="435" y="0" type="line"/>
    </contour>
    <contour>
      <point x="911" y="0" type="line"/>
      <point x="1054" y="0" type="line"/>
      <point x="1054" y="200" type="line"/>
      <point x="911" y="230" type="line"/>
    </contour>
    <contour>
      <point x="911" y="1456" type="line"/>
      <point x="911" y="1226" type="line"/>
      <point x="1054" y="1256" type="line"/>
      <point x="1054" y="1456" type="line"/>
    </contour>
    <contour>
      <point x="588" y="1456" type="line"/>
      <point x="435" y="1456" type="line"/>
      <point x="435" y="1256" type="line"/>
      <point x="588" y="1226" type="line"/>
    </contour>
    <contour>
      <point x="1822" y="1418" type="line"/>
      <point x="1775" y="1449"/>
      <point x="1710" y="1472"/>
      <point x="1636" y="1472" type="curve" smooth="yes"/>
      <point x="1463" y="1472"/>
      <point x="1396" y="1395"/>
      <point x="1287" y="1245" type="curve" smooth="yes"/>
      <point x="1032" y="894" type="line"/>
      <point x="826" y="894" type="line"/>
      <point x="863" y="579" type="line"/>
      <point x="1161" y="579" type="line"/>
      <point x="1508" y="1040" type="line" smooth="yes"/>
      <point x="1592" y="1152"/>
      <point x="1639" y="1171"/>
      <point x="1696" y="1171" type="curve" smooth="yes"/>
      <point x="1727" y="1171"/>
      <point x="1746" y="1165"/>
      <point x="1766" y="1158" type="curve"/>
    </contour>
  </outline>
</glyph>
<glyph name="uni0500" format="1">
  <advance width="1858"/>
  <unicode hex="0500"/>
  <outline>
    <contour>
      <point x="611" y="977" type="line" smooth="yes"/>
      <point x="265" y="977"/>
      <point x="46" y="771"/>
      <point x="46" y="489" type="curve" smooth="yes"/>
      <point x="46" y="206"/>
      <point x="265" y="0"/>
      <point x="611" y="0" type="curve" smooth="yes"/>
      <point x="1148" y="0" type="line"/>
      <point x="1148" y="1456" type="line"/>
      <point x="826" y="1456" type="line"/>
      <point x="826" y="260" type="line"/>
      <point x="611" y="260" type="line" smooth="yes"/>
      <point x="450" y="260"/>
      <point x="369" y="369"/>
      <point x="369" y="491" type="curve" smooth="yes"/>
      <point x="369" y="609"/>
      <point x="450" y="717"/>
      <point x="611" y="717" type="curve" smooth="yes"/>
      <point x="940" y="717" type="line"/>
      <point x="940" y="977" type="line"/>
    </contour>
    <contour>
      <point x="1148" y="1456" type="line"/>
      <point x="1148" y="1226" type="line"/>
      <point x="1301" y="1256" type="line"/>
      <point x="1301" y="1456" type="line"/>
    </contour>
    <contour>
      <point x="826" y="1456" type="line"/>
      <point x="673" y="1456" type="line"/>
      <point x="673" y="1256" type="line"/>
      <point x="826" y="1226" type="line"/>
    </contour>
    <contour>
      <point x="1148" y="0" type="line"/>
      <point x="1301" y="0" type="line"/>
      <point x="1301" y="200" type="line"/>
      <point x="1148" y="230" type="line"/>
    </contour>
  </outline>
</glyph>
<glyph name="uni0509" format="1">
  <advance width="2240"/>
  <unicode hex="0509"/>
  <outline>
    <contour>
      <point x="876" y="1082" type="line"/>
      <point x="388" y="1082" type="line"/>
      <point x="388" y="817" type="line"/>
      <point x="876" y="817" type="line"/>
    </contour>
    <contour>
      <point x="269" y="1082" type="line"/>
      <point x="269" y="622" type="line" smooth="yes"/>
      <point x="269" y="381"/>
      <point x="226" y="280"/>
      <point x="112" y="280" type="curve" smooth="yes"/>
      <point x="71" y="279" type="line"/>
      <point x="67" y="0" type="line"/>
      <point x="145" y="0" type="line" smooth="yes"/>
      <point x="474" y="0"/>
      <point x="591" y="212"/>
      <point x="591" y="622" type="curve" smooth="yes"/>
      <point x="591" y="1082" type="line"/>
    </contour>
    <contour>
      <point x="762" y="387" type="line"/>
      <point x="778" y="96"/>
      <point x="940" y="-25"/>
      <point x="1209" y="-21" type="curve" smooth="yes"/>
      <point x="1454" y="-21"/>
      <point x="1669" y="145"/>
      <point x="1674" y="488" type="curve" smooth="yes"/>
      <point x="1677" y="617"/>
      <point x="1641" y="746"/>
      <point x="1606" y="869" type="curve"/>
      <point x="1291" y="869" type="line"/>
      <point x="1331" y="744"/>
      <point x="1353" y="614"/>
      <point x="1351" y="488" type="curve" smooth="yes"/>
      <point x="1347" y="337"/>
      <point x="1298" y="245"/>
      <point x="1209" y="243" type="curve" smooth="yes"/>
      <point x="1130" y="243"/>
      <point x="1083" y="304"/>
      <point x="1084" y="387" type="curve" smooth="yes"/>
      <point x="1084" y="1082" type="line"/>
      <point x="762" y="1082" type="line"/>
    </contour>
    <contour>
      <point x="1084" y="1082" type="line"/>
      <point x="1084" y="852" type="line"/>
      <point x="1237" y="882" type="line"/>
      <point x="1237" y="1082" type="line"/>
    </contour>
    <contour>
      <point x="1291" y="869" type="line"/>
      <point x="1228" y="869" type="line"/>
      <point x="1228" y="669" type="line"/>
      <point x="1471" y="639" type="line"/>
    </contour>
    <contour>
      <point x="269" y="1082" type="line"/>
      <point x="116" y="1082" type="line"/>
      <point x="116" y="882" type="line"/>
      <point x="269" y="852" type="line"/>
    </contour>
  </outline>
</glyph>
<glyph name="quotereversed" format="1">
  <advance width="1030"/>
  <unicode hex="201B"/>
  <outline>
    <contour>
      <point x="94" y="1366" type="line" smooth="yes"/>
      <point x="94" y="1225"/>
      <point x="182" y="1062"/>
      <point x="277" y="974" type="curve"/>
      <point x="431" y="1054" type="line"/>
      <point x="387" y="1135"/>
      <point x="355" y="1228"/>
      <point x="355" y="1367" type="curve" smooth="yes"/>
      <point x="355" y="1560" type="line"/>
      <point x="94" y="1560" type="line"/>
    </contour>
  </outline>
</glyph>
<glyph name="quotedblleft" format="1">
  <advance width="1361"/>
  <unicode hex="201C"/>
  <outline>
    <contour>
      <point x="104" y="1006" type="line"/>
      <point x="365" y="1006" type="line"/>
      <point x="365" y="1207" type="line" smooth="yes"/>
      <point x="365" y="1346"/>
      <point x="397" y="1439"/>
      <point x="441" y="1520" type="curve"/>
      <point x="287" y="1600" type="line"/>
      <point x="192" y="1512"/>
      <point x="104" y="1349"/>
      <point x="104" y="1208" type="curve" smooth="yes"/>
    </contour>
    <contour>
      <point x="443" y="1006" type="line"/>
      <point x="704" y="1006" type="line"/>
      <point x="704" y="1207" type="line" smooth="yes"/>
      <point x="704" y="1346"/>
      <point x="736" y="1439"/>
      <point x="780" y="1520" type="curve"/>
      <point x="626" y="1600" type="line"/>
      <point x="531" y="1512"/>
      <point x="443" y="1349"/>
      <point x="443" y="1208" type="curve" smooth="yes"/>
    </contour>
  </outline>
</glyph>
<glyph name="guilsinglleft" format="1">
  <advance width="1063"/>
  <unicode hex="2039"/>
  <outline>
    <contour>
      <point x="511" y="950" type="line"/>
      <point x="311" y="950" type="line"/>
      <point x="36" y="560" type="line"/>
      <point x="36" y="547" type="line"/>
      <point x="274" y="546" type="line"/>
    </contour>
    <contour>
      <point x="274" y="555" type="line"/>
      <point x="36" y="554" type="line"/>
      <point x="36" y="541" type="line"/>
      <point x="311" y="151" type="line"/>
      <point x="511" y="151" type="line"/>
    </contour>
  </outline>
</glyph>
<glyph name="nsuperior" format="1">
  <advance width="1450"/>
  <unicode hex="207F"/>
  <outline>
    <contour>
      <point x="359" y="1284" type="line"/>
      <point x="314" y="1456" type="line"/>
      <point x="135" y="1456" type="line"/>
      <point x="135" y="655" type="line"/>
      <point x="359" y="655" type="line"/>
    </contour>
    <contour>
      <point x="335" y="1078" type="line"/>
      <point x="335" y="1187"/>
      <point x="374" y="1272"/>
      <point x="489" y="1272" type="curve" smooth="yes"/>
      <point x="571" y="1272"/>
      <point x="614" y="1223"/>
      <point x="614" y="1083" type="curve" smooth="yes"/>
      <point x="614" y="655" type="line"/>
      <point x="837" y="655" type="line"/>
      <point x="837" y="1159" type="line" smooth="yes"/>
      <point x="837" y="1375"/>
      <point x="739" y="1466"/>
      <point x="571" y="1466" type="curve" smooth="yes"/>
      <point x="389" y="1466"/>
      <point x="288" y="1302"/>
      <point x="288" y="1077" type="curve"/>
    </contour>
  </outline>
</glyph>
<glyph name="threeeighths" format="1">
  <advance width="2271"/>
  <unicode hex="215C"/>
  <outline>
    <contour>
      <point x="470" y="1044" type="line" smooth="yes"/>
      <point x="638" y="1044"/>
      <point x="751" y="1133"/>
      <point x="751" y="1243" type="curve" smooth="yes"/>
      <point x="751" y="1393"/>
      <point x="619" y="1472"/>
      <point x="418" y="1472" type="curve" smooth="yes"/>
      <point x="243" y="1472"/>
      <point x="101" y="1388"/>
      <point x="101" y="1237" type="curve"/>
      <point x="323" y="1237" type="line"/>
      <point x="323" y="1270"/>
      <point x="355" y="1306"/>
      <point x="425" y="1306" type="curve" smooth="yes"/>
      <point x="499" y="1306"/>
      <point x="528" y="1266"/>
      <point x="528" y="1223" type="curve" smooth="yes"/>
      <point x="528" y="1168"/>
      <point x="494" y="1133"/>
      <point x="409" y="1133" type="curve" smooth="yes"/>
      <point x="305" y="1133" type="line"/>
      <point x="305" y="1044" type="line"/>
    </contour>
    <contour>
      <point x="305" y="1093" type="line"/>
      <point x="305" y="999" type="line"/>
      <point x="409" y="999" type="line" smooth="yes"/>
      <point x="497" y="999"/>
      <point x="543" y="960"/>
      <point x="543" y="901" type="curve" smooth="yes"/>
      <point x="543" y="843"/>
      <point x="495" y="816"/>
      <point x="429" y="816" type="curve" smooth="yes"/>
      <point x="350" y="816"/>
      <point x="311" y="847"/>
      <point x="311" y="900" type="curve"/>
      <point x="88" y="900" type="line"/>
      <point x="88" y="737"/>
      <point x="238" y="649"/>
      <point x="432" y="649" type="curve" smooth="yes"/>
      <point x="637" y="649"/>
      <point x="765" y="734"/>
      <point x="765" y="885" type="curve" smooth="yes"/>
      <point x="765" y="1018"/>
      <point x="656" y="1093"/>
      <point x="470" y="1093" type="curve" smooth="yes"/>
    </contour>
    <contour>
      <point x="1341" y="1247" type="line"/>
      <point x="1189" y="1326" type="line"/>
      <point x="478" y="188" type="line"/>
      <point x="630" y="109" type="line"/>
    </contour>
    <contour>
      <point x="1806" y="226" type="curve" smooth="yes"/>
      <point x="1806" y="358"/>
      <point x="1651" y="445"/>
      <point x="1460" y="445" type="curve" smooth="yes"/>
      <point x="1264" y="445"/>
      <point x="1102" y="358"/>
      <point x="1102" y="226" type="curve" smooth="yes"/>
      <point x="1102" y="72"/>
      <point x="1264" y="-11"/>
      <point x="1461" y="-11" type="curve" smooth="yes"/>
      <point x="1653" y="-11"/>
      <point x="1806" y="72"/>
    </contour>
    <contour>
      <point x="1583" y="241" type="curve" smooth="yes"/>
      <point x="1583" y="188"/>
      <point x="1528" y="156"/>
      <point x="1461" y="156" type="curve" smooth="yes"/>
      <point x="1386" y="156"/>
      <point x="1324" y="188"/>
      <point x="1324" y="241" type="curve" smooth="yes"/>
      <point x="1324" y="296"/>
      <point x="1386" y="332"/>
      <point x="1460" y="332" type="curve" smooth="yes"/>
      <point x="1527" y="332"/>
      <point x="1583" y="296"/>
    </contour>
    <contour>
      <point x="1780" y="592" type="curve" smooth="yes"/>
      <point x="1780" y="738"/>
      <point x="1637" y="812"/>
      <point x="1460" y="812" type="curve" smooth="yes"/>
      <point x="1278" y="812"/>
      <point x="1126" y="738"/>
      <point x="1126" y="592" type="curve" smooth="yes"/>
      <point x="1126" y="466"/>
      <point x="1278" y="384"/>
      <point x="1461" y="384" type="curve" smooth="yes"/>
      <point x="1638" y="384"/>
      <point x="1780" y="466"/>
    </contour>
    <contour>
      <point x="1558" y="575" type="curve" smooth="yes"/>
      <point x="1558" y="528"/>
      <point x="1514" y="498"/>
      <point x="1461" y="498" type="curve" smooth="yes"/>
      <point x="1401" y="498"/>
      <point x="1350" y="528"/>
      <point x="1350" y="575" type="curve" smooth="yes"/>
      <point x="1350" y="622"/>
      <point x="1401" y="646"/>
      <point x="1460" y="646" type="curve" smooth="yes"/>
      <point x="1513" y="646"/>
      <point x="1558" y="621"/>
    </contour>
  </outline>
</glyph>
<glyph name="seveneighths" format="1">
  <advance width="2168"/>
  <unicode hex="215E"/>
  <outline>
    <contour>
      <point x="500" y="1288" type="line"/>
      <point x="426" y="1223"/>
      <point x="257" y="1041"/>
      <point x="257" y="781" type="curve" smooth="yes"/>
      <point x="257" y="654" type="line"/>
      <point x="479" y="654" type="line"/>
      <point x="479" y="781" type="line" smooth="yes"/>
      <point x="479" y="1040"/>
      <point x="589" y="1148"/>
      <point x="706" y="1288" type="curve"/>
    </contour>
    <contour>
      <point x="706" y="1455" type="line"/>
      <point x="105" y="1455" type="line"/>
      <point x="105" y="1288" type="line"/>
      <point x="706" y="1288" type="line"/>
    </contour>
    <contour>
      <point x="1221" y="1247" type="line"/>
      <point x="1069" y="1326" type="line"/>
      <point x="358" y="188" type="line"/>
      <point x="510" y="109" type="line"/>
    </contour>
    <contour>
      <point x="1703" y="226" type="curve" smooth="yes"/>
      <point x="1703" y="358"/>
      <point x="1548" y="445"/>
      <point x="1357" y="445" type="curve" smooth="yes"/>
      <point x="1161" y="445"/>
      <point x="999" y="358"/>
      <point x="999" y="226" type="curve" smooth="yes"/>
      <point x="999" y="72"/>
      <point x="1161" y="-11"/>
      <point x="1358" y="-11" type="curve" smooth="yes"/>
      <point x="1550" y="-11"/>
      <point x="1703" y="72"/>
    </contour>
    <contour>
      <point x="1480" y="241" type="curve" smooth="yes"/>
      <point x="1480" y="188"/>
      <point x="1425" y="156"/>
      <point x="1358" y="156" type="curve" smooth="yes"/>
      <point x="1283" y="156"/>
      <point x="1221" y="188"/>
      <point x="1221" y="241" type="curve" smooth="yes"/>
      <point x="1221" y="296"/>
      <point x="1283" y="332"/>
      <point x="1357" y="332" type="curve" smooth="yes"/>
      <point x="1424" y="332"/>
      <point x="1480" y="296"/>
    </contour>
    <contour>
      <point x="1677" y="592" type="curve" smooth="yes"/>
      <point x="1677" y="738"/>
      <point x="1534" y="812"/>
      <point x="1357" y="812" type="curve" smooth="yes"/>
      <point x="1175" y="812"/>
      <point x="1023" y="738"/>
      <point x="1023" y="592" type="curve" smooth="yes"/>
      <point x="1023" y="466"/>
      <point x="1175" y="384"/>
      <point x="1358" y="384" type="curve" smooth="yes"/>
      <point x="1535" y="384"/>
      <point x="1677" y="466"/>
    </contour>
    <contour>
      <point x="1455" y="575" type="curve" smooth="yes"/>
      <point x="1455" y="528"/>
      <point x="1411" y="498"/>
      <point x="1358" y="498" type="curve" smooth="yes"/>
      <point x="1298" y="498"/>
      <point x="1247" y="528"/>
      <point x="1247" y="575" type="curve" smooth="yes"/>
      <point x="1247" y="622"/>
      <point x="1298" y="646"/>
      <point x="1357" y="646" type="curve" smooth="yes"/>
      <point x="1410" y="646"/>
      <point x="1455" y="621"/>
    </contour>
  </outline>
</glyph>
<glyph name="approxequal" format="1">
  <advance width="1701"/>
  <unicode hex="2248"/>
  <outline>
    <contour>
      <point x="133" y="647" type="line"/>
      <point x="196" y="738"/>
      <point x="282" y="793"/>
      <point x="369" y="793" type="curve" smooth="yes"/>
      <point x="475" y="796"/>
      <point x="539" y="762"/>
      <point x="623" y="720" type="curve" smooth="yes"/>
      <point x="702" y="680"/>
      <point x="762" y="651"/>
      <point x="861" y="651" type="curve" smooth="yes"/>
      <point x="948" y="651"/>
      <point x="1034" y="706"/>
      <point x="1097" y="797" type="curve"/>
      <point x="1087" y="1027" type="line"/>
      <point x="1024" y="936"/>
      <point x="938" y="881"/>
      <point x="851" y="881" type="curve" smooth="yes"/>
      <point x="752" y="881"/>
      <point x="692" y="910"/>
      <point x="613" y="950" type="curve" smooth="yes"/>
      <point x="529" y="992"/>
      <point x="465" y="1026"/>
      <point x="359" y="1023" type="curve" smooth="yes"/>
      <point x="272" y="1023"/>
      <point x="186" y="968"/>
      <point x="123" y="877" type="curve"/>
    </contour>
    <contour>
      <point x="123" y="217" type="line"/>
      <point x="186" y="308"/>
      <point x="272" y="363"/>
      <point x="359" y="363" type="curve" smooth="yes"/>
      <point x="465" y="366"/>
      <point x="529" y="332"/>
      <point x="613" y="290" type="curve" smooth="yes"/>
      <point x="692" y="250"/>
      <point x="752" y="221"/>
      <point x="851" y="221" type="curve" smooth="yes"/>
      <point x="938" y="221"/>
      <point x="1024" y="276"/>
      <point x="1087" y="367" type="curve"/>
      <point x="1077" y="597" type="line"/>
      <point x="1014" y="506"/>
      <point x="928" y="451"/>
      <point x="841" y="451" type="curve" smooth="yes"/>
      <point x="742" y="451"/>
      <point x="682" y="480"/>
      <point x="603" y="520" type="curve" smooth="yes"/>
      <point x="519" y="562"/>
      <point x="455" y="596"/>
      <point x="349" y="593" type="curve" smooth="yes"/>
      <point x="262" y="593"/>
      <point x="176" y="538"/>
      <point x="113" y="447" type="curve"/>
    </contour>
  </outline>
</glyph>
<glyph name="uniFFFD" format="1">
  <advance width="2424"/>
  <unicode hex="FFFD"/>
  <outline>
    <contour>
      <point x="6" y="643" type="line"/>
      <point x="962" y="-332" type="line"/>
      <point x="1921" y="643" type="line"/>
      <point x="962" y="1618" type="line"/>
    </contour>
    <contour>
      <point x="843" y="402" type="line"/>
      <point x="844" y="529"/>
      <point x="887" y="569"/>
      <point x="981" y="635" type="curve" smooth="yes"/>
      <point x="1034" y="670"/>
      <point x="1074" y="721"/>
      <point x="1074" y="790" type="curve" smooth="yes"/>
      <point x="1074" y="859"/>
      <point x="1036" y="906"/>
      <point x="961" y="906" type="curve" smooth="yes"/>
      <point x="909" y="906"/>
      <point x="860" y="876"/>
      <point x="858" y="803" type="curve"/>
      <point x="655" y="803" type="line"/>
      <point x="658" y="991"/>
      <point x="791" y="1069"/>
      <point x="961" y="1069" type="curve" smooth="yes"/>
      <point x="1159" y="1069"/>
      <point x="1277" y="961"/>
      <point x="1277" y="790" type="curve" smooth="yes"/>
      <point x="1277" y="681"/>
      <point x="1201" y="591"/>
      <point x="1111" y="542" type="curve"/>
      <point x="1056" y="506"/>
      <point x="1045" y="470"/>
      <point x="1045" y="402" type="curve"/>
    </contour>
    <contour>
      <point x="1045" y="141" type="line"/>
      <point x="843" y="141" type="line"/>
      <point x="843" y="311" type="line"/>
      <point x="1045" y="311" type="line"/>
    </contour>
    <contour>
      <point x="970" y="-555" type="line"/>
      <point x="974" y="-555" type="line"/>
      <point x="974" y="-551" type="line"/>
      <point x="970" y="-551" type="line"/>
    </contour>
    <contour>
      <point x="968" y="2142" type="line"/>
      <point x="972" y="2142" type="line"/>
      <point x="972" y="2146" type="line"/>
      <point x="968" y="2146" type="line"/>
    </contour>
  </outline>
</glyph>
<glyph name="C.smcp" format="1">
  <advance width="1650"/>
  <outline>
    <contour>
      <point x="772" y="406" type="line"/>
      <point x="752" y="288"/>
      <point x="728" y="241"/>
      <point x="604" y="241" type="curve" smooth="yes"/>
      <point x="474" y="241"/>
      <point x="417" y="333"/>
      <point x="417" y="461" type="curve" smooth="yes"/>
      <point x="417" y="705" type="line" smooth="yes"/>
      <point x="417" y="834"/>
      <point x="474" y="924"/>
      <point x="604" y="924" type="curve" smooth="yes"/>
      <point x="714" y="924"/>
      <point x="755" y="869"/>
      <point x="775" y="761" type="curve"/>
      <point x="1096" y="761" type="line"/>
      <point x="1076" y="1042"/>
      <point x="896" y="1181"/>
      <point x="604" y="1181" type="curve" smooth="yes"/>
      <point x="294" y="1181"/>
      <point x="95" y="987"/>
      <point x="95" y="704" type="curve" smooth="yes"/>
      <point x="95" y="461" type="line" smooth="yes"/>
      <point x="95" y="178"/>
      <point x="294" y="-17"/>
      <point x="604" y="-17" type="curve" smooth="yes"/>
      <point x="896" y="-17"/>
      <point x="1074" y="123"/>
      <point x="1094" y="406" type="curve"/>
    </contour>
  </outline>
</glyph>
<glyph name="four.smcp" format="1">
  <advance width="1609"/>
  <outline>
    <contour>
      <point x="1079" y="527" type="line"/>
      <point x="354" y="527" type="line"/>
      <point x="570" y="800" type="line"/>
      <point x="852" y="1165" type="line"/>
      <point x="605" y="1165" type="line"/>
      <point x="30" y="485" type="line"/>
      <point x="52" y="316" type="line"/>
      <point x="1079" y="316" type="line"/>
    </contour>
    <contour>
      <point x="922" y="1165" type="line"/>
      <point x="600" y="1165" type="line"/>
      <point x="600" y="0" type="line"/>
      <point x="922" y="0" type="line"/>
    </contour>
    <contour>
      <point x="922" y="0" type="line"/>
      <point x="1075" y="0" type="line"/>
      <point x="1075" y="200" type="line"/>
      <point x="922" y="230" type="line"/>
    </contour>
    <contour>
      <point x="600" y="0" type="line"/>
      <point x="600" y="230" type="line"/>
      <point x="447" y="200" type="line"/>
      <point x="447" y="0" type="line"/>
    </contour>
  </outline>
</glyph>
<glyph name="four.sup" format="1">
  <advance width="1360"/>
  <outline>
    <contour>
      <point x="788" y="302" type="line"/>
      <point x="274" y="302" type="line"/>
      <point x="452" y="518" type="line"/>
      <point x="642" y="801" type="line"/>
      <point x="473" y="801" type="line"/>
      <point x="48" y="271" type="line"/>
      <point x="63" y="134" type="line"/>
      <point x="788" y="134" type="line"/>
    </contour>
    <contour>
      <point x="695" y="801" type="line"/>
      <point x="471" y="801" type="line"/>
      <point x="471" y="0" type="line"/>
      <point x="695" y="0" type="line"/>
    </contour>
  </outline>
</glyph>
<glyph name="largerighthook" format="1">
  <advance width="1561"/>
  <outline>
    <contour>
      <point x="67" y="577" type="line"/>
      <point x="378" y="577" type="line" smooth="yes"/>
      <point x="555" y="577"/>
      <point x="661" y="468"/>
      <point x="660" y="226" type="curve" smooth="yes"/>
      <point x="659" y="122"/>
      <point x="644" y="-115"/>
      <point x="414" y="-115" type="curve"/>
      <point x="414" y="-360" type="line"/>
      <point x="851" y="-360"/>
      <point x="982" y="-17"/>
      <point x="982" y="246" type="curve" smooth="yes"/>
      <point x="982" y="654"/>
      <point x="733" y="837"/>
      <point x="378" y="837" type="curve" smooth="yes"/>
      <point x="67" y="837" type="line"/>
    </contour>
  </outline>
</glyph>
<glyph name="seven.lnum" format="1">
  <advance width="1557"/>
  <outline>
    <contour>
      <point x="695" y="1196" type="line"/>
      <point x="460" y="910"/>
      <point x="334" y="544"/>
      <point x="296" y="141" type="curve" smooth="yes"/>
      <point x="282" y="0" type="line"/>
      <point x="605" y="0" type="line"/>
      <point x="619" y="141" type="line" smooth="yes"/>
      <point x="655" y="520"/>
      <point x="710" y="834"/>
      <point x="1005" y="1196" type="curve"/>
    </contour>
    <contour>
      <point x="1005" y="1456" type="line"/>
      <point x="42" y="1456" type="line"/>
      <point x="42" y="1196" type="line"/>
      <point x="1005" y="1196" type="line"/>
    </contour>
  </outline>
</glyph>
